<?xml version="1.0" encoding="utf-8"?>
<!-- Generator: Adobe Illustrator 25.0.0, SVG Export Plug-In . SVG Version: 6.00 Build 0)  -->
<svg version="1.1" id="Layer_1" xmlns="http://www.w3.org/2000/svg" xmlns:xlink="http://www.w3.org/1999/xlink" x="0px" y="0px"
	 width="270px" height="219.4px" viewBox="0 0 270 219.4" style="enable-background:new 0 0 270 219.4;" xml:space="preserve">
<style type="text/css">
	.st0{fill:#1DA1F2;}
</style>
<path class="st0" d="M84.9,219.4c101.9,0,157.6-84.4,157.6-157.6c0-2.4,0-4.8-0.2-7.2c10.8-7.8,20.2-17.6,27.6-28.7
	c-9.9,4.4-20.6,7.4-31.8,8.7c11.4-6.9,20.2-17.7,24.4-30.6c-10.7,6.3-22.6,11-35.2,13.4C217.3,6.7,202.9,0,186.9,0
	c-30.6,0-55.4,24.8-55.4,55.4c0,4.3,0.5,8.6,1.4,12.6c-46-2.3-86.9-24.4-114.2-57.9C14,18.3,11.3,27.8,11.3,38
	c0,19.2,9.8,36.2,24.7,46.1c-9.1-0.3-17.6-2.8-25.1-6.9c0,0.2,0,0.5,0,0.7c0,26.8,19.1,49.2,44.4,54.3c-4.7,1.3-9.6,1.9-14.6,1.9
	c-3.6,0-7-0.4-10.4-1c7.1,22,27.5,38,51.7,38.5c-19,14.9-42.8,23.7-68.8,23.7c-4.5,0-8.9-0.3-13.2-0.8
	C24.5,210.3,53.6,219.4,84.9,219.4"/>
</svg>
